<?xml version="1.0" encoding="utf-8"?>
<!-- Generator: Adobe Illustrator 22.1.0, SVG Export Plug-In . SVG Version: 6.00 Build 0)  -->
<svg version="1.1" id="Слой_1" xmlns="http://www.w3.org/2000/svg" xmlns:xlink="http://www.w3.org/1999/xlink" x="0px" y="0px"
	 viewBox="0 0 250 250" style="enable-background:new 0 0 250 250;" xml:space="preserve">
<style type="text/css">
	.st0{fill:#264DE4;}
	.st1{fill:#2965F1;}
	.st2{fill:#EBEBEB;}
	.st3{fill:#FFFFFF;}
</style>
<title>Монтажная область 1</title>
<g id="layer1">
	<g id="g3013">
		<polygon id="polygon2989" class="st0" points="219.4,49.1 203.3,229.9 130.8,250 58.4,229.9 42.3,49.1 		"/>
		<polygon id="polygon2991" class="st1" points="189.5,218.4 203.3,63.9 130.9,63.9 130.9,234.6 		"/>
		<polygon id="polygon2993" class="st2" points="79.3,131 81.3,153.1 130.9,153.1 130.9,131 		"/>
		<polygon id="polygon2995" class="st2" points="130.9,86.1 130.8,86.1 75.3,86.1 77.3,108.3 130.9,108.3 		"/>
		<polygon id="polygon2997" class="st2" points="130.9,211.6 130.9,188.6 130.8,188.6 106.1,181.9 104.5,164.2 92.5,164.2 
			82.3,164.2 85.4,199 130.8,211.6 		"/>
		<path id="path2999" d="M84,0h26.9v11.2H95.2v11.2h15.6v11.2H84V0z"/>
		<path id="path3001" d="M116.2,0h26.9v9.8h-15.6v2h15.6v22.4h-26.9V23.9h15.6V22h-15.6V0z"/>
		<path id="path3003" d="M148.5,0h26.9v9.8h-15.6v2h15.6v22.4h-26.8V23.9h15.6V22h-15.6V0z"/>
		<polygon id="polygon3005" class="st3" points="158.1,153.1 155.5,181.9 130.8,188.6 130.8,211.6 176.3,199 176.6,195.3 
			181.8,136.9 182.3,131 186.3,86.1 130.8,86.1 130.8,108.3 162.1,108.3 160,131 130.8,131 130.8,153.1 		"/>
	</g>
</g>
</svg>
