<?xml version="1.0" encoding="utf-8"?>
<!-- Generator: Adobe Illustrator 22.1.0, SVG Export Plug-In . SVG Version: 6.00 Build 0)  -->
<svg version="1.1" id="Слой_1" xmlns="http://www.w3.org/2000/svg" xmlns:xlink="http://www.w3.org/1999/xlink" x="0px" y="0px"
	 viewBox="0 0 250 250" style="enable-background:new 0 0 250 250;" xml:space="preserve">
<style type="text/css">
	.st0{fill:#7289DA;}
</style>
<path class="st0" d="M146.9,105.9c-6.8,0-12.3,5.9-12.3,13.2s5.5,13.2,12.3,13.2c6.8,0,12.3-5.9,12.3-13.2S153.6,105.9,146.9,105.9z
	 M103,105.9c-6.8,0-12.3,5.9-12.3,13.2s5.5,13.2,12.3,13.2c6.8,0,12.3-5.9,12.3-13.2C115.4,111.8,109.9,105.9,103,105.9z"/>
<path class="st0" d="M205.3,6h-161C30.7,6,19.7,17.1,19.7,30.6v161c0,13.6,11.1,24.6,24.6,24.6h136.2l-6.4-22l15.4,14.2l14.5,13.3
	l25.9,22.5V30.6C229.9,17.1,218.8,6,205.3,6z M158.9,161.6c0,0-4.3-5.2-7.9-9.6c15.7-4.4,21.7-14.2,21.7-14.2
	c-4.9,3.2-9.6,5.5-13.8,7.1c-6,2.5-11.8,4.1-17.4,5.2c-11.5,2.2-22.1,1.6-31.1-0.1c-6.8-1.3-12.7-3.1-17.7-5.2
	c-2.8-1.1-5.8-2.4-8.8-4.1c-0.4-0.2-0.7-0.4-1.1-0.6c-0.2-0.1-0.4-0.2-0.5-0.2c-2.2-1.2-3.4-2-3.4-2s5.8,9.5,21,14.1
	c-3.6,4.6-8,9.8-8,9.8c-26.5-0.8-36.6-18.1-36.6-18.1c0-38.3,17.3-69.4,17.3-69.4c17.3-12.9,33.6-12.5,33.6-12.5l1.2,1.4
	C85.9,69.2,76,78.7,76,78.7s2.6-1.4,7.1-3.4c12.9-5.6,23.1-7.1,27.3-7.6c0.7-0.1,1.3-0.2,2-0.2c7.3-1,15.6-1.2,24.3-0.2
	c11.4,1.3,23.7,4.7,36.2,11.4c0,0-9.5-9-29.9-15.1l1.7-1.9c0,0,16.5-0.4,33.6,12.5c0,0,17.3,31.1,17.3,69.4
	C195.5,143.4,185.4,160.7,158.9,161.6L158.9,161.6z"/>
</svg>
