<?xml version="1.0" encoding="utf-8"?>
<!-- Generator: Adobe Illustrator 22.1.0, SVG Export Plug-In . SVG Version: 6.00 Build 0)  -->
<svg version="1.1" id="Слой_1" xmlns="http://www.w3.org/2000/svg" xmlns:xlink="http://www.w3.org/1999/xlink" x="0px" y="0px"
	 viewBox="0 0 250 250" style="enable-background:new 0 0 250 250;" xml:space="preserve">
<style type="text/css">
	.st0{fill:#E44D26;}
	.st1{fill:#F16529;}
	.st2{fill:#EBEBEB;}
	.st3{fill:#FFFFFF;}
</style>
<path d="M53.4,0.9h11.2V12h10.3V0.9H86v33.5H74.8V23.3H64.7v11.2H53.4 M100.7,12.1h-9.8V0.9h30.9v11.2h-9.9v22.3h-11.2 M126.7,0.9
	h11.7l7.2,11.8l7.2-11.8h11.7v33.5h-11.2V17.8l-7.8,12l-7.8-12v16.6h-11 M170,0.9h11.2v22.4h15.8v11.1h-27"/>
<path class="st0" d="M53,229.4L37,49.7h176l-16,179.6l-72.1,20"/>
<path class="st1" d="M125,234V64.5h71.9l-13.7,153.3"/>
<path class="st2" d="M69.7,86.5H125v22H93.9l2,22.6H125v22H75.7 M76.7,164.1h22.1l1.6,17.6l24.6,6.6v23l-45.2-12.6"/>
<path class="st3" d="M180.1,86.5h-55.2v22h53.2 M176.1,131h-51.2v22h27.2l-2.6,28.6l-24.6,6.6v22.9l45.1-12.5"/>
</svg>
