<?xml version="1.0" encoding="utf-8"?>
<!-- Generator: Adobe Illustrator 22.1.0, SVG Export Plug-In . SVG Version: 6.00 Build 0)  -->
<svg version="1.1" id="Слой_1" xmlns="http://www.w3.org/2000/svg" xmlns:xlink="http://www.w3.org/1999/xlink" x="0px" y="0px"
	 viewBox="0 0 250 250" style="enable-background:new 0 0 250 250;" xml:space="preserve">
<style type="text/css">
	.st0{fill:#D4A138;}
	.st1{fill:#E3BD38;}
	.st2{fill:#FFFFFF;}
	.st3{fill:#EAE9E9;}
	.st4{fill:#262424;}
</style>
<g>
	<polygon class="st0" points="214.9,49.1 126.1,49.1 126.1,49.1 37.3,49.1 53.9,229.6 126.1,250.1 126.1,250.1 126.1,250.1 
		126.1,250.1 126.1,250.1 198.2,229.6 	"/>
	<polygon class="st1" points="126.1,63.8 126.1,234.8 126.1,234.8 184.5,218.2 198.8,63.8 	"/>
	<polygon class="st2" points="172.6,86 82.8,86 76.5,153.6 76.6,153.1 152.9,153.1 150.5,181.7 126.1,188.7 101.4,181.6 99.9,164.3 
		77.4,164.3 80.6,198.8 126.1,211.8 171.6,198.8 177.8,131 96.8,131 97.9,108.5 154,108.5 154.8,121.3 177.5,121.3 	"/>
	<g>
		<path class="st3" d="M126.1,86H82.8l-6.3,67.6l0.1-0.5h49.5V131H99.9l1.1-22.7h25.2V86z M99.9,164.3H77.4l3.2,34.6l45.5,12.9v-23
			l-24.7-7.1L99.9,164.3z"/>
	</g>
	<g>
		<polygon class="st4" points="108.9,22.4 93,22.4 93,33.8 108.9,33.8 117.3,33.8 120.1,33.8 120.1,0.1 108.9,0.1 		"/>
		<path class="st4" d="M159.2,0.2h-27.5c0,0,0,5.9,0,11.8c3.7,3.7,5.6,5.4,11,10.8c-3.1,0-11,0-11,0v10.8h27.5V22.8l-11-10.8h11V0.2
			z"/>
	</g>
</g>
</svg>
