<?xml version="1.0"?>
<svg xmlns="http://www.w3.org/2000/svg" xmlns:xlink="http://www.w3.org/1999/xlink" xmlns:svgjs="http://svgjs.com/svgjs" version="1.1" width="512" height="512" x="0" y="0" viewBox="0 0 511.996 511.996" style="enable-background:new 0 0 512 512" xml:space="preserve" class=""><g><g xmlns="http://www.w3.org/2000/svg"><path d="m473.434 442.372h-434.872v-264.56c0-8.284 6.716-15 15-15h404.872c8.284 0 15 6.716 15 15z" fill="#7855a8" data-original="#548eb5" style="" class=""/><path d="m103.558 162.808c-8.28 0-15 6.72-15 15v264.56h-50v-264.56c0-8.28 6.72-15 15-15z" fill="#7855a8" data-original="#447d99" style="" class=""/><path d="m69.625 193.874h372.747v248.498h-372.747z" fill="#c9ebfa" data-original="#c9ebfa" style="" class=""/><path d="m380.248 318.118-68.12-31.06c10.69-34.28 20.77-67.24 21.49-93.1l.04-.02 31.06 31z" fill="#ff324a" data-original="#f07281" style="" class=""/><path d="m199.668 287.148-67.92 30.97 15.53-93.18 31.06-31 .07.05c.79 17.5 8.13 47.29 15.47 73.31 1.97 6.99 3.94 13.71 5.79 19.85z" fill="#ff324a" data-original="#f07281" style="" class=""/><path d="m69.628 193.878h18.93v248.49h-18.93z" fill="#a0ddf3" data-original="#a0ddf3" style="" class=""/><path d="m333.658 191.058c0 33.87-17.35 80.83-31.07 127.06h-93.18s-7.77-23.3-15.53-50.82c-7.77-27.54-15.54-59.3-15.54-76.24 0-36.58 6.56-72.3 18.86-104.6 9.1-23.91 21.34-45.95 36.38-65.09 14.95-18.49 29.89-18.49 44.84 0 15.04 19.14 27.28 41.18 36.38 65.09 12.3 32.3 18.86 68.02 18.86 104.6z" fill="#f5fcff" data-original="#f5fcff" style="" class=""/><path d="m270.998 13.708c-2.47 2.05-4.95 4.6-7.42 7.66-11.87 15.1-21.99 32.01-30.21 50.22-16.26 36.04-25.03 77.18-25.03 119.47 0 16.94 7.77 48.7 15.54 76.24 1.96 6.96 3.93 13.65 5.76 19.76 5.43 18.06 9.77 31.06 9.77 31.06h-30l-.09-.27c-.64-1.93-4.66-14.13-9.61-30.56l-.07-.23c-1.83-6.11-3.8-12.8-5.76-19.76-7.77-27.54-15.54-59.3-15.54-76.24 0-36.58 6.56-72.3 18.86-104.6 9.1-23.91 21.34-45.95 36.38-65.09 12.48-15.43 24.95-17.98 37.42-7.66z" fill="#dff1f7" data-original="#dff1f7" style="" class=""/><path d="m312.131 287.063h-112.491l9.765 31.06h93.186z" fill="#ff324a" data-original="#f07281" style="" class=""/><path d="m239.408 318.118h-30l-.09-.27-9.61-30.56-.07-.23h30c5.43 18.06 9.77 31.06 9.77 31.06z" fill="#eb5569" data-original="#eb5569" style="" class=""/><path d="m314.798 86.458c-16.98-10.9-37.17-17.23-58.8-17.23s-41.82 6.33-58.8 17.23c9.1-23.91 21.34-45.95 36.38-65.09 14.95-18.49 29.89-18.49 44.84 0 15.04 19.14 27.28 41.18 36.38 65.09z" fill="#ff324a" data-original="#f07281" style="" class=""/><path d="m270.998 13.708c-2.47 2.05-4.95 4.6-7.42 7.66-11.87 15.1-21.99 32.01-30.21 50.22-13.07 2.77-25.28 7.88-36.17 14.87 9.1-23.91 21.34-45.95 36.38-65.09 12.48-15.43 24.95-17.98 37.42-7.66z" fill="#eb5569" data-original="#eb5569" style="" class=""/><path d="m474.496 504.496h-436.996c-16.569 0-30-13.431-30-30v-32.125h496.996v32.125c0 16.569-13.431 30-30 30z" fill="#f5fcff" data-original="#f5fcff" style="" class=""/><path d="m87.498 504.498h-50c-16.57 0-30-13.43-30-30v-32.13h50v32.13c0 16.57 13.43 30 30 30z" fill="#dff1f7" data-original="#dff1f7" style="" class=""/><path d="m349.185 442.372h-186.374l31.063 31.062h124.249z" fill="#7855a8" data-original="#548eb5" style="" class=""/><path d="m193.874 349.183s.071 22.482 0 31.04c-15.531.025-31.062 14.38-31.062 31.09h-31.062c-15.531 0-31.062 15.528-31.062 31.06h310.623c0-15.532-15.531-31.06-31.062-31.06h-31.062c0-16.05-12.853-31.09-31.062-31.09 0-7.558 0-31.04 0-31.04z" fill="#a0ddf3" data-original="#a0ddf3" style="" class=""/><path d="m224.936 349.184 31.062 62.077 31.062-62.077z" fill="#fcd700" data-original="#fcd700" style="" class=""/><ellipse cx="255.998" cy="178.403" fill="#ff324a" rx="46.575" ry="46.573" data-original="#f07281" style="" class=""/><path d="m265.998 223.898c-3.22.71-6.57 1.08-10 1.08-25.68 0-46.57-20.89-46.57-46.57s20.89-46.58 46.57-46.58c3.43 0 6.78.37 10 1.09-20.89 4.58-36.57 23.24-36.57 45.49s15.68 40.9 36.57 45.49z" fill="#eb5569" data-original="#eb5569" style="" class=""/><path d="m193.874 349.183 15.531-31.06h93.186l15.532 31.06z" fill="#8cbdf9" data-original="#8cbdf9" style="" class=""/><path d="m239.408 318.118-15.53 31.06h-30l15.53-31.06z" fill="#73a2da" data-original="#73a2da" style=""/><circle cx="255.998" cy="178.403" fill="#8cbdf9" r="15.531" data-original="#8cbdf9" style="" class=""/><path d="m260.998 193.108c-1.57.54-3.25.83-5 .83-8.58 0-15.53-6.96-15.53-15.53 0-8.58 6.95-15.54 15.53-15.54 1.75 0 3.43.29 5 .83-6.13 2.08-10.53 7.88-10.53 14.71 0 6.82 4.4 12.62 10.53 14.7z" fill="#73a2da" data-original="#73a2da" style=""/><g><path d="m504.496 434.872h-23.558v-257.064c0-12.407-10.093-22.5-22.5-22.5h-45.34c-4.142 0-7.5 3.358-7.5 7.5s3.358 7.5 7.5 7.5h45.34c4.135 0 7.5 3.364 7.5 7.5v257.06h-16.07v-240.99c0-4.142-3.358-7.5-7.5-7.5h-101.259c-.079-5.381-.299-10.738-.65-16.07h39.949c4.142 0 7.5-3.358 7.5-7.5s-3.358-7.5-7.5-7.5h-41.295c-2.3-19.982-6.536-39.525-12.683-58.408-9.29-28.54-23.164-56.908-42.179-80.245-8.933-11.051-18.438-16.655-28.253-16.655s-19.32 5.604-28.253 16.655c-19.015 23.336-32.889 51.705-42.179 80.245-6.147 18.883-10.384 38.426-12.683 58.408h-119.325c-12.407 0-22.5 10.093-22.5 22.5v257.063h-23.558c-4.142 0-7.5 3.358-7.5 7.5v32.125c0 20.678 16.822 37.5 37.5 37.5h436.996c20.678 0 37.5-16.822 37.5-37.5v-32.125c0-4.142-3.358-7.499-7.5-7.499zm-69.628-233.494v233.49h-16.943c-3.924-16.797-20.388-31.056-37.678-31.056h-24.293c-3.018-15.273-15.07-27.334-30.331-30.357v-24.272c0-1.156-.275-2.321-.792-3.354l-14.201-28.399c1.999-6.672 4.071-13.391 6.131-20.012l60.375 27.529c4.877 2.223 11.524-1.97 10.509-8.057l-15.531-93.186c-.257-1.544-.992-2.97-2.1-4.076l-18.285-18.25zm-228.859 140.305 8.031-16.06h83.916l8.031 16.06zm68.912 15.001-18.923 37.817-18.923-37.817zm22.087-46.062h-82.163c-1.205-4.662-2.76-10.098-4.52-16.059h91.709c-1.748 5.452-3.445 10.82-5.026 16.059zm-95.616 46.061h18.91l28.989 57.935c1.271 2.54 3.867 4.144 6.707 4.144s5.437-1.604 6.707-4.144l28.989-57.935h18.929v23.54c0 4.142 3.358 7.5 7.5 7.5 14.554 0 23.562 12.245 23.562 23.59 0 4.142 3.358 7.5 7.5 7.5h31.063c8.936 0 18.274 7.374 21.945 16.056h-292.389c3.671-8.681 13.009-16.056 21.945-16.056h31.063c4.142 0 7.5-3.358 7.5-7.5 0-11.886 11.677-23.571 23.574-23.59 4.113-.006 7.454-3.325 7.488-7.438.043-5.359.032-16.234.018-23.602zm138.279-146.146 18.043 18.007 12.817 76.905-49.277-22.469c8.055-25.97 15.381-50.716 18.417-72.443zm-100.23-184.491c5.934-7.33 11.504-11.046 16.557-11.046s10.624 3.716 16.557 11.046c10.441 13.292 19.509 28.166 27.076 44.166-13.787-5.578-28.569-8.484-43.633-8.484s-29.846 2.906-43.633 8.484c7.567-16 16.636-30.874 27.076-44.166zm-35.983 65.361c15.835-9.604 33.94-14.679 52.54-14.679s36.705 5.075 52.54 14.679c11.447 30.963 17.847 63.965 17.616 99.647-.177 27.269-9.702 58.666-19.29 88.508h-101.03c-9.02-29.973-19.991-66.835-19.991-88.508-.001-34.557 6.168-68.683 17.615-99.647zm-12.856 191.636-49.137 22.405 12.817-76.905 18.427-18.391c3.477 21.663 11.201 50.23 17.893 72.891zm-144.544-105.235c0-4.136 3.365-7.5 7.5-7.5h117.979c-.352 5.332-.571 10.689-.65 16.07h-101.259c-4.142 0-7.5 3.358-7.5 7.5v138.96c0 4.142 3.358 7.5 7.5 7.5s7.5-3.358 7.5-7.5v-131.46h83.139l-18.285 18.25c-1.108 1.106-1.842 2.531-2.1 4.076l-15.531 93.186c-1.015 6.087 5.633 10.28 10.509 8.057l60.114-27.41c2.797 9.081 5.093 16.188 6.339 19.998l-14.148 28.295c-.517 1.037-.796 2.219-.792 3.378 0 .179.044 14.339.027 24.359-14.578 3.272-26.98 15.677-30.249 30.247h-24.403c-17.29 0-33.753 14.259-37.678 31.056h-16.942v-69.34c0-4.142-3.358-7.5-7.5-7.5s-7.5 3.358-7.5 7.5v69.34h-16.07zm450.938 296.688c0 12.407-10.093 22.5-22.5 22.5h-436.996c-12.407 0-22.5-10.093-22.5-22.5v-24.625l144.706.001 28.869 28.869c1.406 1.407 3.314 2.197 5.303 2.197h45.66c4.142 0 7.5-3.358 7.5-7.5s-3.358-7.5-7.5-7.5h-42.554l-16.065-16.065h150.158l-16.065 16.065h-42.784c-4.142 0-7.5 3.358-7.5 7.5s3.358 7.5 7.5 7.5h45.89c1.989 0 3.897-.79 5.303-2.197l28.869-28.869 144.706-.001z" fill="#000000" data-original="#000000" style="" class=""/><path d="m255.998 232.476c29.817 0 54.075-24.257 54.075-54.073s-24.258-54.073-54.075-54.073-54.075 24.257-54.075 54.073 24.258 54.073 54.075 54.073zm0-93.145c21.546 0 39.075 17.528 39.075 39.073s-17.529 39.073-39.075 39.073-39.075-17.528-39.075-39.073 17.529-39.073 39.075-39.073z" fill="#000000" data-original="#000000" style="" class=""/><path d="m255.998 201.434c12.7 0 23.031-10.332 23.031-23.031 0-12.7-10.332-23.031-23.031-23.031s-23.031 10.332-23.031 23.031c0 12.7 10.331 23.031 23.031 23.031zm0-31.062c4.428 0 8.031 3.603 8.031 8.031s-3.603 8.031-8.031 8.031-8.031-3.603-8.031-8.031 3.603-8.031 8.031-8.031z" fill="#000000" data-original="#000000" style="" class=""/></g></g></g></svg>
