<?xml version="1.0" encoding="utf-8"?>
<!-- Generator: Adobe Illustrator 22.1.0, SVG Export Plug-In . SVG Version: 6.00 Build 0)  -->
<svg version="1.1" id="Слой_1" xmlns="http://www.w3.org/2000/svg" xmlns:xlink="http://www.w3.org/1999/xlink" x="0px" y="0px"
	 viewBox="0 0 250 250" style="enable-background:new 0 0 250 250;" xml:space="preserve">
<style type="text/css">
	.st0{clip-path:url(#SVGID_1_);}
	.st1{fill:#E5E5E4;}
	.st2{clip-path:url(#SVGID_2_);}
	.st3{fill:#FFFFFF;}
	.st4{clip-path:url(#SVGID_3_);}
	.st5{fill:#4A8CFF;}
	.st6{clip-path:url(#SVGID_4_);}
</style>
<g>
	<g>
		<defs>
			<circle id="SVGID_9_" cx="125.4" cy="124.8" r="114.8"/>
		</defs>
		<clipPath id="SVGID_1_">
			<use xlink:href="#SVGID_9_"  style="overflow:visible;"/>
		</clipPath>
		<g class="st0">
			<path class="st1" d="M4.9,4.3h240.9v240.9H4.9V4.3z"/>
		</g>
	</g>
</g>
<g>
	<g>
		<defs>
			<circle id="SVGID_11_" cx="125.4" cy="124.8" r="112.6"/>
		</defs>
		<clipPath id="SVGID_2_">
			<use xlink:href="#SVGID_11_"  style="overflow:visible;"/>
		</clipPath>
		<g class="st2">
			<path class="st3" d="M7.2,6.6h236.5v236.5H7.2V6.6z"/>
		</g>
	</g>
</g>
<g>
	<g>
		<defs>
			<circle id="SVGID_13_" cx="125.4" cy="124.8" r="103.6"/>
		</defs>
		<clipPath id="SVGID_3_">
			<use xlink:href="#SVGID_13_"  style="overflow:visible;"/>
		</clipPath>
		<g class="st4">
			<path class="st5" d="M16.2,15.6h218.4V234H16.2V15.6z"/>
		</g>
	</g>
</g>
<g>
	<g>
		<defs>
			<path id="SVGID_15_" d="M156.9,111.4L186.2,90c2.5-2.1,4.5-1.6,4.5,2.2v65.2c0,4.3-2.4,3.8-4.5,2.2l-29.3-21.4V111.4z M57.9,92.4
				v48.7c0,11,9,19.9,20,19.8h70.9c2,0,3.6-1.6,3.6-3.6v-48.7c0-11-9-19.9-20-19.8H61.5C59.5,88.8,57.9,90.4,57.9,92.4z"/>
		</defs>
		<clipPath id="SVGID_4_">
			<use xlink:href="#SVGID_15_"  style="overflow:visible;"/>
		</clipPath>
		<g class="st6">
			<path class="st3" d="M52.2,83.2h144.1v83.3H52.2V83.2z"/>
		</g>
	</g>
</g>
</svg>
