<svg height="512" viewBox="0 0 48 58" width="512" xmlns="http://www.w3.org/2000/svg"><g id="Page-1" fill="none" fill-rule="evenodd"><g id="065---Developer-Book" fill-rule="nonzero" transform="translate(-1)"><path id="Shape" d="m47 0h-41c-2.76142375 0-5 2.23857625-5 5v44c-.00311634.1635861.00356227.327212.02.49.32491085 2.607865 2.56231031 4.5521177 5.19 4.51h40.79c1.1032019-.0032948 1.9967052-.8967981 2-2v-50c-.0032948-1.10320187-.8967981-1.9967052-2-2z" fill="#f9eab0"/><path id="Shape" d="m49 2v39c0 1.1-.9 3-2 3h-41c-2.76142375 0-5 2.2385763-5 5v-44c0-2.76142375 2.23857625-5 5-5h41c1.1032019.0032948 1.9967052.89679813 2 2z" fill="#35495e"/><g fill="#2c3e50"><path id="Shape" d="m8 0v2c0 .55228475-.44771525 1-1 1s-1-.44771525-1-1v-2z"/><path id="Shape" d="m7 9c-.55228475 0-1-.44771525-1-1v-2c0-.55228475.44771525-1 1-1s1 .44771525 1 1v2c0 .55228475-.44771525 1-1 1z"/><path id="Shape" d="m49 41v11c-.0032948 1.1032019-.8967981 1.9967052-2 2h-1c-1.66 0-3-2.24-3-5s1.34-5 3-5h1c1.1 0 2-1.9 2-3z"/><path id="Shape" d="m7 15c-.55228475 0-1-.4477153-1-1v-2c0-.5522847.44771525-1 1-1s1 .4477153 1 1v2c0 .5522847-.44771525 1-1 1z"/><path id="Shape" d="m7 21c-.55228475 0-1-.4477153-1-1v-2c0-.5522847.44771525-1 1-1s1 .4477153 1 1v2c0 .5522847-.44771525 1-1 1z"/><path id="Shape" d="m7 27c-.55228475 0-1-.4477153-1-1v-2c0-.5522847.44771525-1 1-1s1 .4477153 1 1v2c0 .5522847-.44771525 1-1 1z"/><path id="Shape" d="m7 33c-.55228475 0-1-.4477153-1-1v-2c0-.5522847.44771525-1 1-1s1 .4477153 1 1v2c0 .5522847-.44771525 1-1 1z"/><path id="Shape" d="m7 39c-.55228475 0-1-.4477153-1-1v-2c0-.5522847.44771525-1 1-1s1 .4477153 1 1v2c0 .5522847-.44771525 1-1 1z"/><path id="Shape" d="m8 42v2h-2v-2c0-.5522847.44771525-1 1-1s1 .4477153 1 1z"/></g><path id="Shape" d="m46 54h-39.79c-2.62768969.0421177-4.86508915-1.902135-5.19-4.51-.01643773-.162788-.02311634-.3264139-.02-.49 0-2.7614237 2.23857625-5 5-5h40c-1.66 0-3 2.24-3 5s1.34 5 3 5z" fill="#f9eab0"/><path id="Shape" d="m11 49h10v8c.0000756.3602062-.193577.692619-.5069584.8702156-.3133815.1775966-.6980603.1729304-1.0070416-.0122156l-2.972-1.783c-.3164363-.1896131-.7115637-.1896131-1.028 0l-2.972 1.783c-.3089813.185146-.6936601.1898122-1.0070416.0122156-.3133814-.1775966-.507034-.5100094-.5069584-.8702156z" fill="#955ba5"/><path id="Shape" d="m25 50h-17c-.55228475 0-1-.4477153-1-1s.44771525-1 1-1h17c.5522847 0 1 .4477153 1 1s-.4477153 1-1 1z" fill="#fac176"/><path id="Shape" d="m19 31c-.5842743-.0002537-1.1392217-.2559899-1.519-.7l-6-7c-.6401754-.748448-.6401754-1.851552 0-2.6l6-7c.4565676-.5694913 1.1871219-.8450292 1.9060544-.7188927s1.3120546.633913 1.5474864 1.3248155c.2354319.6909024.0757797 1.4551942-.4165408 1.9940772l-4.884 5.7 4.885 5.7c.5073414.5931477.6232667 1.4272477.2969036 2.1362658-.3263632.709018-1.0353785 1.1633954-1.8159036 1.1637342z" fill="#ecf0f1"/><path id="Shape" d="m37 31c.5846236.0000385 1.1399946-.2557245 1.52-.7l6-7c.6401754-.748448.6401754-1.851552 0-2.6l-6-7c-.4582255-.5641291-1.1864151-.8352797-1.9020073-.7082363-.7155922.1270433-1.3059448.6322825-1.5419814 1.3196681-.2360367.6873855-.0806026 1.4487153.4059887 1.9885682l4.884 5.7-4.885 5.7c-.5073414.5931477-.6232667 1.4272477-.2969036 2.1362658.3263632.709018 1.0353785 1.1633954 1.8159036 1.1637342z" fill="#ecf0f1"/><path id="Shape" d="m26 33c-.1108798-.0000859-.2215721-.0091152-.331-.027-1.0892246-.1811253-1.825584-1.2106855-1.645-2.3l3-18c.1175404-.704885.6022038-1.2935186 1.2714224-1.5441681.6692185-.2506496 1.4213218-.1252355 1.973.329.5516781.4542354.819118 1.1682831.7015776 1.8731681l-3 18c-.161514.962462-.9940807 1.6678192-1.97 1.669z" fill="#955ba5"/></g></g></svg>