<?xml version="1.0"?>
<svg xmlns="http://www.w3.org/2000/svg" xmlns:xlink="http://www.w3.org/1999/xlink" xmlns:svgjs="http://svgjs.com/svgjs" version="1.1" width="512" height="512" x="0" y="0" viewBox="0 0 512 512" style="enable-background:new 0 0 512 512" xml:space="preserve" class=""><g transform="matrix(0.93,0,0,0.9299999999999999,17.920033912658795,-67.08000106811525)"><g xmlns="http://www.w3.org/2000/svg"><path d="m478.599 381.273h-445.198v-276.288c0-16.105 13.055-29.16 29.16-29.16h386.877c16.105 0 29.16 13.055 29.16 29.16v276.288z" fill="#3ea27e" data-original="#756e78" style="" class=""/><path d="m449.439 75.825h-17.239c16.105 0 29.16 13.055 29.16 29.16v237.467c0 12.722-10.313 23.035-23.035 23.035h-404.924v15.786h427.959 17.239v-15.786-260.502c0-16.105-13.056-29.16-29.16-29.16z" fill="#3ea27e" data-original="#665e66" style="" class=""/><path d="m65.794 342.148v-227.199c0-2.833 2.296-5.129 5.129-5.129h370.155c2.833 0 5.129 2.296 5.129 5.129v227.199c0 2.833-2.296 5.129-5.129 5.129h-370.155c-2.833 0-5.129-2.297-5.129-5.129z" fill="#ffffff" data-original="#b1e4f9" style="" class=""/><path d="m441.077 109.82h-21.759c2.832 0 5.129 2.296 5.129 5.129v227.199c0 2.833-2.296 5.129-5.129 5.129h21.759c2.833 0 5.129-2.296 5.129-5.129v-227.199c0-2.832-2.296-5.129-5.129-5.129z" fill="#ffffff" data-original="#90d8f9" style="" class=""/><path d="m500.479 436.175h-488.958c-6.363 0-11.521-5.158-11.521-11.521v-31.859c0-6.363 5.158-11.521 11.521-11.521h488.295c6.729 0 12.184 5.455 12.184 12.184v31.197c0 6.362-5.158 11.52-11.521 11.52z" fill="#3ea27e" data-original="#756e78" style="" class=""/><path d="m499.816 381.273h-16.664c6.729 0 12.184 5.455 12.184 12.184v31.197c0 6.363-5.158 11.521-11.521 11.521h16.664c6.363 0 11.522-5.158 11.522-11.521v-31.197c-.001-6.729-5.456-12.184-12.185-12.184z" fill="#3ea27e" data-original="#665e66" style="" class=""/><path d="m293.813 408.724h-75.626c-4.1 0-7.776-2.527-9.244-6.356l-8.09-21.095h110.295l-8.09 21.095c-1.469 3.829-5.145 6.356-9.245 6.356z" fill="#ffffff" data-original="#f9f6f6" style="" class=""/></g></g></svg>
