<?xml version="1.0"?>
<svg xmlns="http://www.w3.org/2000/svg" xmlns:xlink="http://www.w3.org/1999/xlink" xmlns:svgjs="http://svgjs.com/svgjs" version="1.1" width="512" height="512" x="0" y="0" viewBox="0 0 512 512" style="enable-background:new 0 0 512 512" xml:space="preserve" class=""><g transform="matrix(1,0,0,1,0,-10)"><path xmlns="http://www.w3.org/2000/svg" d="M488,16H24a8.00008,8.00008,0,0,0-8,8V304a8.00008,8.00008,0,0,0,8,8H48a7.9992,7.9992,0,0,0,7.76074-6.05957L60.24585,288H71.40234L64.00586,487.7041A7.999,7.999,0,0,0,72,496H96a8,8,0,0,0,7.80957-6.26465L128,380.87842l24.19043,108.85693A8,8,0,0,0,160,496H456a8.00008,8.00008,0,0,0,8-8V352h16a8.00008,8.00008,0,0,0,8-8V312a8.00008,8.00008,0,0,0-8-8H366.77734l-2.6665-16H488a8.00008,8.00008,0,0,0,8-8V24A8.00008,8.00008,0,0,0,488,16ZM124,128a20.0226,20.0226,0,0,1-20-20V96h40v12A20.0226,20.0226,0,0,1,124,128Zm20-48H104V72a8.00917,8.00917,0,0,1,8-8h32Zm-40.80908,57.34888A35.78122,35.78122,0,0,0,120,143.77246V160h16V141.93579a35.933,35.933,0,0,0,9.0708-4.77319l34.12744,14.626a72.334,72.334,0,0,1,26.9502,20.08545l13.51147,16.2146-19.84765,29.77076-10.1648-7.62354,2.31934-25.51172-15.9336-1.44824L168.69434,264H136V176H120v88H87.30566L79.9668,183.27588l-15.9336,1.44824,3.26441,35.90808L65.155,223.846,36.57031,212.41211A143.68315,143.68315,0,0,1,50.92871,177a71.76784,71.76784,0,0,1,30.31445-28.67725ZM304,208v9.22314l-72.43262,12.07178a32.13566,32.13566,0,0,1-18.51318-2.45459l17.34082-26.0105A23.92316,23.92316,0,0,0,247.49414,208Zm-46.77734,96H185.19019l-.59253-16h75.2915ZM41.75391,296H32V248.27588a143.31993,143.31993,0,0,1,1.40479-19.898L56.384,237.56958c-.05151.16223-.10351.32446-.14477.49ZM69.9082,249.35059,71.96729,272H64.24585Zm65.90137,92.91406a8.00007,8.00007,0,0,0-15.61914,0L89.583,480H80.30176l7.407-200h80.58252l.88892,24H152a8.00008,8.00008,0,0,0-8,8v32a8.00008,8.00008,0,0,0,8,8h7.99976l-.00342,99.10681ZM175.99512,480l.00464-128H216V480ZM392,352V480H232V352Zm56,128H408V352h40Zm24-144H160V320H472ZM273.44434,304l5.333-32h66.44532l5.333,32ZM480,272H361.44434l-1.55274-9.31543A8.0005,8.0005,0,0,0,352,256H272a8.0005,8.0005,0,0,0-7.8916,6.68457L262.55566,272H184.03271l3.91285-43.04126,9.56225,7.17163a48.24442,48.24442,0,0,0,28.87012,9.59229,47.56975,47.56975,0,0,0,7.82031-.64551l49.44434-8.24072-3.13281,8.35449,14.98046,5.61816,6.37891-17.01025,11.44629-1.90772A8,8,0,0,0,320,224V200a7.97974,7.97974,0,0,0-3.09082-6.30762l26.58105-70.8833-14.98046-5.61816L300.45654,192h-52.9624a7.97981,7.97981,0,0,1-6.14648-2.87842l-22.90821-27.49072A88.3981,88.3981,0,0,0,185.501,137.08252L156.009,124.44312A35.76625,35.76625,0,0,0,160,108V64a16.01833,16.01833,0,0,0-16-16H112A24.02718,24.02718,0,0,0,88,72v36a35.77148,35.77148,0,0,0,4.24292,16.9342l-18.156,9.078a87.72659,87.72659,0,0,0-37.05078,35.04931Q34.34962,173.7633,32,178.62927V32H480Z" fill="#e74c3c" data-original="#000000" style="" class=""/></g></svg>
